<?xml version="1.0" encoding="UTF-8"?>
<svg xmlns="http://www.w3.org/2000/svg" xmlns:xlink="http://www.w3.org/1999/xlink" viewBox="0 0 48 48" width="48px" height="48px">
<g id="surface13532483">
<path style=" stroke:none;fill-rule:nonzero;fill:rgb(18.039216%,80.000001%,44.313726%);fill-opacity:1;" d="M 3.578125 9.910156 C 4.050781 17.1875 3.75 16.121094 3.75 21.46875 C 3.75 22.351562 4.097656 25.289062 4.070312 26.171875 C 3.960938 29.609375 3.996094 30.953125 4.140625 33.117188 C 4.335938 36.078125 3.558594 42.265625 5.132812 43.160156 C 7.65625 44.601562 10.027344 44.210938 12.140625 44.3125 C 14.253906 44.417969 20.238281 43.859375 23.195312 43.832031 C 28.175781 43.78125 29.40625 43.5625 34.886719 43.785156 C 36.882812 43.863281 38.527344 43.535156 40.511719 43.296875 C 42.507812 43.058594 44.097656 40.914062 44.097656 36.539062 C 44.097656 32.214844 43.324219 31.753906 43.136719 27.300781 C 42.960938 23.132812 43.472656 21.632812 43.480469 19.980469 C 43.488281 18.644531 43.53125 16.226562 43.507812 14.890625 C 43.488281 13.652344 43.625 9.917969 43.523438 8.648438 C 43.421875 7.378906 43.101562 5.386719 41.480469 4.542969 C 40.996094 4.292969 40.453125 4.171875 39.914062 4.113281 C 37.355469 3.832031 31.992188 4.902344 31.476562 4.953125 C 26.613281 5.441406 26.84375 4.859375 21.980469 4.859375 C 20.632812 4.859375 16.296875 4.980469 14.945312 4.953125 C 11.53125 4.886719 9.714844 4.886719 8.628906 4.953125 C 4.457031 5.214844 3.578125 6.992188 3.578125 9.910156 "/>
<path style=" stroke:none;fill-rule:nonzero;fill:rgb(0.392157%,0.392157%,0.392157%);fill-opacity:1;" d="M 12.765625 44.824219 C 12.523438 44.824219 12.304688 44.820312 12.117188 44.8125 C 11.675781 44.789062 11.222656 44.789062 10.753906 44.789062 C 8.972656 44.785156 6.988281 44.792969 4.886719 43.59375 C 3.601562 42.863281 3.5625 40.210938 3.648438 36.253906 C 3.671875 35.082031 3.695312 33.976562 3.640625 33.148438 C 3.496094 30.9375 3.464844 29.546875 3.570312 26.15625 C 3.585938 25.710938 3.488281 24.613281 3.40625 23.644531 C 3.328125 22.746094 3.253906 21.898438 3.253906 21.46875 C 3.253906 19.726562 3.285156 18.660156 3.3125 17.769531 C 3.367188 15.9375 3.398438 14.832031 3.082031 9.941406 L 3.078125 9.910156 C 3.078125 6.84375 4.015625 4.742188 8.597656 4.457031 C 9.722656 4.386719 11.566406 4.386719 14.957031 4.453125 C 15.738281 4.472656 17.578125 4.433594 19.203125 4.402344 C 20.355469 4.378906 21.421875 4.359375 21.980469 4.359375 C 23.957031 4.359375 25.085938 4.453125 26.082031 4.535156 C 27.523438 4.65625 28.5625 4.742188 31.425781 4.457031 C 31.515625 4.449219 31.761719 4.40625 32.117188 4.34375 C 33.820312 4.054688 37.808594 3.378906 39.96875 3.613281 C 40.65625 3.691406 41.226562 3.847656 41.710938 4.101562 C 43.738281 5.152344 43.953125 7.753906 44.023438 8.609375 C 44.089844 9.4375 44.058594 11.21875 44.03125 12.789062 C 44.015625 13.65625 44.003906 14.4375 44.007812 14.882812 C 44.023438 15.789062 44.007812 17.199219 43.996094 18.429688 L 43.980469 19.980469 C 43.980469 20.574219 43.914062 21.144531 43.839844 21.800781 C 43.699219 23.039062 43.523438 24.582031 43.636719 27.277344 C 43.726562 29.335938 43.9375 30.519531 44.144531 31.660156 C 44.378906 32.96875 44.601562 34.203125 44.601562 36.535156 C 44.601562 40.777344 43.09375 43.488281 40.574219 43.789062 C 40.117188 43.84375 39.679688 43.902344 39.25 43.960938 C 37.808594 44.15625 36.441406 44.339844 34.863281 44.277344 C 31.21875 44.132812 29.449219 44.179688 27.214844 44.246094 C 26.09375 44.277344 24.855469 44.3125 23.203125 44.328125 C 21.894531 44.339844 19.945312 44.460938 18.0625 44.578125 C 16.007812 44.703125 14.050781 44.824219 12.765625 44.824219 Z M 10.882812 43.789062 C 11.320312 43.789062 11.746094 43.792969 12.164062 43.8125 C 13.308594 43.871094 15.691406 43.722656 18 43.582031 C 19.898438 43.464844 21.855469 43.34375 23.191406 43.332031 C 24.835938 43.316406 26.070312 43.28125 27.183594 43.246094 C 29.441406 43.183594 31.222656 43.132812 34.90625 43.28125 C 36.398438 43.347656 37.71875 43.164062 39.113281 42.972656 C 39.550781 42.914062 39.992188 42.855469 40.453125 42.800781 C 42.425781 42.5625 43.601562 40.222656 43.601562 36.539062 C 43.601562 34.292969 43.386719 33.101562 43.160156 31.839844 C 42.949219 30.664062 42.730469 29.449219 42.636719 27.320312 C 42.523438 24.550781 42.699219 22.964844 42.847656 21.6875 C 42.917969 21.058594 42.980469 20.515625 42.980469 19.976562 L 42.996094 18.417969 C 43.007812 17.195312 43.023438 15.800781 43.007812 14.898438 C 43.003906 14.445312 43.015625 13.652344 43.03125 12.773438 C 43.058594 11.300781 43.089844 9.472656 43.027344 8.6875 C 42.925781 7.441406 42.628906 5.703125 41.25 4.988281 C 40.878906 4.792969 40.421875 4.671875 39.859375 4.609375 C 37.84375 4.390625 33.945312 5.050781 32.285156 5.332031 C 31.894531 5.398438 31.625 5.441406 31.523438 5.453125 C 28.574219 5.746094 27.4375 5.652344 26 5.535156 C 25.023438 5.453125 23.917969 5.359375 21.980469 5.359375 C 21.425781 5.359375 20.371094 5.382812 19.222656 5.402344 C 17.589844 5.4375 15.738281 5.472656 14.9375 5.457031 C 11.617188 5.386719 9.738281 5.386719 8.65625 5.453125 C 4.816406 5.695312 4.082031 7.199219 4.078125 9.894531 C 4.398438 14.816406 4.363281 15.941406 4.308594 17.800781 C 4.28125 18.683594 4.25 19.738281 4.25 21.46875 C 4.25 21.855469 4.324219 22.722656 4.398438 23.558594 C 4.488281 24.601562 4.585938 25.683594 4.566406 26.1875 C 4.460938 29.539062 4.492188 30.910156 4.636719 33.085938 C 4.695312 33.957031 4.667969 35.082031 4.644531 36.273438 C 4.59375 38.648438 4.515625 42.234375 5.378906 42.726562 C 7.25 43.792969 9.058594 43.800781 10.75 43.789062 C 10.796875 43.789062 10.839844 43.789062 10.882812 43.789062 Z M 10.882812 43.789062 "/>
<path style=" stroke:none;fill-rule:nonzero;fill:rgb(80.000001%,80.000001%,80.000001%);fill-opacity:1;" d="M 24.644531 13.769531 C 20.15625 13.824219 15.839844 13.492188 11.1875 13.933594 C 10.671875 13.980469 10.117188 13.953125 9.6875 14.242188 C 9.03125 14.683594 8.898438 15.582031 8.835938 16.371094 C 8.464844 21.140625 8.5625 25.941406 9.125 30.691406 C 9.261719 31.84375 9.542969 33.164062 10.578125 33.6875 C 11.054688 33.925781 11.609375 33.941406 12.144531 33.953125 C 15.703125 34.035156 19.265625 34.117188 22.824219 34.199219 C 26.988281 34.292969 31.15625 34.386719 35.308594 34.105469 C 36.125 34.050781 36.988281 33.964844 37.636719 33.46875 C 38.476562 32.828125 38.730469 31.691406 38.84375 30.640625 C 39.128906 27.976562 38.859375 25.289062 38.589844 22.621094 C 38.394531 20.65625 38.195312 18.6875 37.996094 16.71875 C 37.898438 15.738281 37.738281 14.644531 36.957031 14.046875 C 36.480469 13.683594 35.859375 13.453125 35.257812 13.496094 C 31.425781 13.777344 28.347656 13.417969 24.644531 13.769531 "/>
<path style=" stroke:none;fill-rule:nonzero;fill:rgb(0.392157%,0.392157%,0.392157%);fill-opacity:1;" d="M 29.09375 34.792969 C 26.980469 34.792969 24.878906 34.742188 22.8125 34.695312 L 12.132812 34.453125 C 11.601562 34.441406 10.941406 34.425781 10.355469 34.132812 C 9.105469 33.503906 8.777344 31.992188 8.628906 30.75 C 8.0625 25.972656 7.964844 21.121094 8.339844 16.332031 C 8.382812 15.722656 8.480469 14.453125 9.410156 13.828125 C 9.867188 13.519531 10.390625 13.488281 10.847656 13.457031 L 11.136719 13.4375 C 14.265625 13.140625 17.28125 13.191406 20.199219 13.238281 C 21.667969 13.261719 23.132812 13.289062 24.613281 13.269531 C 26.585938 13.085938 28.410156 13.097656 30.175781 13.109375 C 31.777344 13.117188 33.425781 13.128906 35.21875 13 C 35.90625 12.945312 36.652344 13.1875 37.257812 13.652344 C 38.191406 14.363281 38.382812 15.582031 38.492188 16.667969 L 39.085938 22.574219 C 39.355469 25.222656 39.628906 27.964844 39.339844 30.695312 C 39.226562 31.761719 38.964844 33.085938 37.9375 33.867188 C 37.191406 34.4375 36.246094 34.546875 35.34375 34.605469 C 33.269531 34.746094 31.175781 34.792969 29.09375 34.792969 Z M 16.847656 14.199219 C 15.011719 14.199219 13.136719 14.25 11.234375 14.429688 L 10.914062 14.453125 C 10.550781 14.480469 10.203125 14.5 9.96875 14.660156 C 9.507812 14.96875 9.390625 15.683594 9.335938 16.410156 C 8.96875 21.136719 9.066406 25.921875 9.621094 30.632812 C 9.738281 31.628906 9.980469 32.824219 10.804688 33.238281 C 11.191406 33.433594 11.679688 33.445312 12.15625 33.453125 L 22.839844 33.699219 C 26.921875 33.789062 31.144531 33.886719 35.277344 33.609375 C 36.058594 33.554688 36.808594 33.472656 37.335938 33.070312 C 38.058594 32.519531 38.257812 31.457031 38.347656 30.589844 C 38.628906 27.960938 38.359375 25.273438 38.097656 22.675781 L 37.5 16.769531 C 37.410156 15.851562 37.269531 14.914062 36.65625 14.445312 C 36.246094 14.132812 35.726562 13.972656 35.296875 13.996094 C 33.464844 14.128906 31.792969 14.117188 30.175781 14.109375 C 28.347656 14.097656 26.617188 14.085938 24.691406 14.265625 L 24.652344 14.269531 C 23.15625 14.289062 21.671875 14.261719 20.1875 14.238281 C 19.085938 14.21875 17.972656 14.199219 16.847656 14.199219 Z M 24.644531 13.769531 L 24.652344 13.769531 Z M 24.644531 13.769531 "/>
<path style=" stroke:none;fill-rule:nonzero;fill:rgb(0.392157%,0.392157%,0.392157%);fill-opacity:1;" d="M 23.660156 28.011719 C 23.519531 28.011719 23.378906 28.003906 23.230469 27.992188 C 21.394531 27.851562 19.917969 26.589844 18.671875 25.421875 C 15.304688 22.246094 12.171875 18.785156 9.351562 15.125 C 9.183594 14.90625 9.222656 14.59375 9.441406 14.425781 C 9.660156 14.253906 9.972656 14.296875 10.144531 14.515625 C 12.929688 18.132812 16.03125 21.558594 19.359375 24.691406 C 20.476562 25.746094 21.796875 26.882812 23.308594 26.996094 C 24.828125 27.109375 25.546875 26.488281 26.738281 25.449219 L 27.136719 25.109375 C 29.460938 23.117188 31.703125 20.125 33.871094 17.234375 C 34.816406 15.976562 35.707031 14.789062 36.566406 13.730469 C 36.742188 13.519531 37.058594 13.488281 37.273438 13.660156 C 37.484375 13.835938 37.515625 14.148438 37.34375 14.363281 C 36.492188 15.40625 35.609375 16.585938 34.671875 17.832031 C 32.46875 20.769531 30.191406 23.804688 27.785156 25.867188 L 27.394531 26.203125 C 26.246094 27.203125 25.320312 28.011719 23.660156 28.011719 Z M 23.660156 28.011719 "/>
<path style=" stroke:none;fill-rule:nonzero;fill:rgb(0.392157%,0.392157%,0.392157%);fill-opacity:1;" d="M 37.695312 33.304688 C 37.597656 33.304688 37.503906 33.277344 37.414062 33.21875 C 35.566406 31.972656 34.148438 30.265625 32.648438 28.460938 C 31.484375 27.058594 30.285156 25.613281 28.789062 24.265625 C 28.585938 24.078125 28.570312 23.765625 28.753906 23.558594 C 28.941406 23.355469 29.257812 23.339844 29.460938 23.523438 C 31.007812 24.917969 32.234375 26.394531 33.417969 27.820312 C 34.871094 29.570312 36.242188 31.222656 37.976562 32.390625 C 38.203125 32.546875 38.265625 32.855469 38.109375 33.085938 C 38.015625 33.226562 37.855469 33.304688 37.695312 33.304688 Z M 37.695312 33.304688 "/>
<path style=" stroke:none;fill-rule:nonzero;fill:rgb(0.392157%,0.392157%,0.392157%);fill-opacity:1;" d="M 9.980469 33.714844 C 9.867188 33.714844 9.753906 33.675781 9.660156 33.59375 C 9.449219 33.417969 9.421875 33.101562 9.601562 32.890625 L 10.054688 32.347656 C 11.230469 30.941406 12.5625 29.347656 13.96875 28.273438 C 14.652344 27.753906 17.085938 24.730469 17.160156 24.109375 C 17.191406 23.84375 17.429688 23.628906 17.695312 23.648438 C 17.960938 23.667969 18.167969 23.875 18.160156 24.140625 C 18.132812 25.234375 15.171875 28.613281 14.574219 29.070312 C 13.257812 30.074219 11.964844 31.625 10.820312 32.988281 L 10.363281 33.535156 C 10.265625 33.652344 10.125 33.714844 9.980469 33.714844 Z M 9.980469 33.714844 "/>
</g>
</svg>
