<?xml version="1.0" encoding="UTF-8"?>
<svg xmlns="http://www.w3.org/2000/svg" xmlns:xlink="http://www.w3.org/1999/xlink" viewBox="0 0 48 48" width="48px" height="48px">
<g id="surface14147094">
<path style=" stroke:none;fill-rule:nonzero;fill:rgb(83.92157%,89.803922%,89.803922%);fill-opacity:1;" d="M 35.539062 27.429688 C 34.949219 27.382812 34.359375 27.375 33.757812 27.394531 C 33.789062 28.078125 33.84375 28.753906 33.882812 29.4375 C 34.367188 29.417969 34.867188 29.390625 35.351562 29.351562 C 35.511719 29.34375 35.632812 29.398438 35.71875 29.484375 C 35.679688 28.800781 35.625 28.117188 35.539062 27.429688 Z M 35.878906 32.304688 C 35.832031 31.574219 35.804688 30.84375 35.757812 30.101562 C 35.691406 30.195312 35.578125 30.273438 35.429688 30.28125 C 34.921875 30.320312 34.414062 30.347656 33.910156 30.375 C 33.917969 31.058594 33.882812 31.78125 33.582031 32.371094 C 34.351562 32.34375 35.109375 32.316406 35.878906 32.304688 Z M 32.945312 29.464844 C 32.90625 28.789062 32.851562 28.105469 32.820312 27.429688 C 32.15625 27.449219 31.351562 27.46875 30.796875 27.777344 C 30.796875 27.789062 30.796875 27.796875 30.796875 27.804688 L 30.796875 29.484375 C 31.507812 29.484375 32.230469 29.484375 32.945312 29.464844 Z M 26.476562 18.335938 C 26.082031 17.34375 24.992188 16.976562 24 17.164062 C 22.867188 17.371094 22.003906 18.226562 21.796875 19.359375 C 21.777344 19.460938 21.730469 19.546875 21.675781 19.601562 C 21.703125 20.175781 21.816406 20.792969 22.265625 21.167969 C 22.875 21.664062 23.839844 21.710938 24.589844 21.582031 C 25.339844 21.449219 26.0625 21.054688 26.390625 20.34375 C 26.664062 19.726562 26.726562 18.976562 26.476562 18.335938 Z M 17.324219 31.960938 C 17.316406 32.304688 17.304688 32.664062 17.269531 33.007812 C 17.257812 33.132812 17.230469 33.28125 17.183594 33.414062 C 17.746094 33.488281 18.882812 33.628906 19.117188 33.132812 C 19.332031 32.671875 19.378906 32.136719 19.367188 31.613281 C 18.757812 31.921875 18.007812 31.960938 17.324219 31.960938 Z M 19.179688 28.3125 C 19.164062 28.3125 19.144531 28.3125 19.125 28.3125 C 18.796875 28.3125 18.46875 28.304688 18.140625 28.339844 C 17.898438 28.367188 17.671875 28.453125 17.429688 28.453125 L 17.296875 28.453125 C 17.296875 28.472656 17.296875 28.492188 17.296875 28.507812 C 17.296875 29.34375 17.324219 30.1875 17.335938 31.023438 C 17.945312 31.03125 18.617188 31.011719 19.105469 30.683594 C 19.179688 30.636719 19.257812 30.609375 19.332031 30.601562 C 19.273438 29.851562 19.179688 29.082031 19.179688 28.3125 Z M 41.464844 17.785156 C 39.945312 17.136719 38.738281 15.835938 37.546875 14.726562 C 36.066406 13.351562 34.332031 12.28125 32.652344 11.15625 C 30.9375 10.011719 29.316406 8.757812 27.769531 7.386719 C 26.476562 6.234375 25.144531 4.976562 23.503906 4.320312 C 23.492188 4.339844 23.492188 4.351562 23.484375 4.367188 C 23.503906 5.53125 23.605469 6.695312 23.839844 7.828125 C 23.945312 7.820312 24.054688 7.855469 24.167969 7.941406 C 26.71875 10.171875 29.726562 11.785156 32.335938 13.941406 C 33.789062 15.148438 35.195312 16.40625 36.664062 17.597656 C 37.800781 18.515625 38.8125 19.621094 40.078125 20.363281 C 40.359375 20.035156 40.601562 19.679688 40.835938 19.332031 C 41.015625 19.070312 41.183594 18.796875 41.324219 18.515625 C 41.371094 18.421875 41.417969 18.328125 41.445312 18.234375 C 41.363281 18.085938 41.382812 17.914062 41.464844 17.785156 Z M 16.367188 28.585938 C 16.367188 28.546875 16.367188 28.507812 16.378906 28.472656 C 16.304688 28.472656 16.226562 28.480469 16.164062 28.480469 C 15.75 28.5 15.300781 28.5 14.90625 28.601562 C 14.710938 28.660156 14.652344 28.660156 14.605469 28.894531 C 14.445312 29.539062 14.503906 30.242188 14.578125 30.910156 C 15.1875 30.929688 15.804688 30.976562 16.414062 31.011719 L 16.414062 30.9375 C 16.398438 30.148438 16.367188 29.371094 16.367188 28.585938 Z M 14.679688 31.835938 C 14.738281 32.242188 14.804688 32.652344 14.859375 33.054688 C 15.320312 33.121094 15.769531 33.207031 16.226562 33.28125 C 16.226562 33.179688 16.257812 33.074219 16.332031 33 C 16.339844 32.960938 16.339844 32.925781 16.351562 32.886719 C 16.367188 32.71875 16.378906 32.550781 16.386719 32.371094 C 16.398438 32.222656 16.398438 32.082031 16.398438 31.929688 C 15.824219 31.902344 15.253906 31.855469 14.679688 31.835938 Z M 14.679688 31.835938 "/>
<path style=" stroke:none;fill-rule:nonzero;fill:rgb(100%,16.862746%,0%);fill-opacity:1;" d="M 39.421875 21.132812 C 39.421875 21.113281 39.421875 21.085938 39.421875 21.066406 C 38.230469 20.316406 37.246094 19.285156 36.160156 18.402344 C 34.695312 17.222656 33.300781 15.976562 31.855469 14.773438 C 29.335938 12.683594 26.445312 11.089844 23.945312 8.992188 C 23.429688 9.695312 22.847656 10.332031 22.238281 10.949219 C 21.542969 11.652344 20.867188 12.402344 20.148438 13.078125 C 19.359375 13.808594 18.648438 14.605469 17.925781 15.402344 C 17.25 16.144531 16.480469 16.820312 15.824219 17.570312 C 14.710938 18.835938 13.539062 20.363281 12.046875 21.234375 C 12.101562 21.414062 12.066406 21.609375 11.886719 21.757812 C 12.019531 21.648438 11.972656 21.617188 11.953125 21.769531 C 11.945312 21.851562 11.933594 21.9375 11.945312 22.03125 C 11.953125 22.265625 11.960938 22.492188 11.992188 22.714844 C 12.046875 23.203125 12.121094 23.691406 12.179688 24.179688 C 12.253906 24.757812 12.234375 25.332031 12.261719 25.914062 C 12.289062 26.710938 12.335938 27.507812 12.414062 28.292969 C 12.488281 29.195312 12.5625 30.101562 12.628906 31.011719 C 12.683594 31.117188 12.703125 31.238281 12.65625 31.359375 C 12.824219 33.675781 12.9375 35.992188 12.957031 38.304688 C 12.957031 38.316406 12.957031 38.324219 12.957031 38.34375 C 12.976562 38.34375 12.992188 38.34375 13.011719 38.34375 C 13.070312 38.34375 13.117188 38.351562 13.164062 38.363281 C 13.199219 38.351562 13.246094 38.34375 13.292969 38.34375 C 14.691406 38.351562 16.085938 38.484375 17.484375 38.363281 C 18.179688 38.296875 18.863281 38.25 19.554688 38.15625 C 19.902344 38.109375 20.242188 38.0625 20.585938 38.042969 C 20.699219 38.042969 21.394531 38.109375 21.414062 38.082031 C 21.460938 38.035156 21.507812 38.007812 21.5625 37.976562 C 21.488281 37.425781 21.402344 36.882812 21.335938 36.328125 C 21.160156 35.007812 21.160156 33.617188 21.160156 32.289062 C 21.160156 30.910156 21.214844 29.53125 21.449219 28.171875 C 21.488281 27.957031 21.664062 27.824219 21.871094 27.796875 C 22.398438 27.722656 22.921875 27.683594 23.445312 27.664062 C 23.886719 27.65625 24.355469 27.710938 24.796875 27.648438 C 25.386719 27.5625 25.960938 27.328125 26.558594 27.300781 C 28.332031 27.207031 28.257812 29.699219 28.285156 30.929688 C 28.292969 31.566406 28.21875 32.222656 28.292969 32.859375 C 28.359375 33.375 28.414062 33.898438 28.472656 34.414062 C 28.59375 35.539062 28.707031 36.664062 28.800781 37.789062 C 28.828125 37.789062 28.855469 37.789062 28.882812 37.789062 C 29.992188 37.875 31.085938 37.546875 32.164062 37.367188 C 32.953125 37.238281 33.710938 37.210938 34.5 37.265625 C 35.183594 37.3125 35.878906 37.359375 36.570312 37.351562 C 36.910156 37.339844 37.667969 37.378906 37.867188 37.105469 C 38.015625 36.882812 38.242188 36.890625 38.417969 37.003906 C 38.4375 36.992188 38.464844 36.984375 38.484375 36.976562 C 38.644531 36.929688 38.792969 36.898438 38.953125 36.871094 C 39.214844 36.441406 39.1875 35.914062 39.167969 35.417969 C 39.148438 34.835938 39.214844 34.273438 39.261719 33.695312 C 39.382812 32.289062 39.429688 30.890625 39.46875 29.484375 C 39.535156 26.699219 39.429688 23.914062 39.421875 21.132812 Z M 19.808594 33.796875 C 19.304688 34.527344 18 34.425781 17.230469 34.351562 C 16.265625 34.265625 15.320312 34.050781 14.351562 33.929688 C 14.136719 33.898438 13.996094 33.703125 13.976562 33.507812 C 13.867188 32.644531 13.707031 31.789062 13.632812 30.917969 C 13.554688 30.121094 13.445312 29.136719 13.789062 28.378906 C 14.148438 27.589844 15.101562 27.589844 15.851562 27.554688 C 16.332031 27.523438 16.800781 27.515625 17.277344 27.515625 C 17.550781 27.515625 17.804688 27.429688 18.074219 27.402344 C 18.402344 27.375 18.730469 27.375 19.058594 27.375 C 19.359375 27.375 19.527344 27.601562 19.546875 27.835938 C 19.808594 27.757812 20.117188 27.882812 20.128906 28.226562 C 20.136719 29.210938 20.289062 30.195312 20.304688 31.179688 C 20.304688 32.042969 20.316406 33.054688 19.808594 33.796875 Z M 24.148438 22.554688 C 23.257812 22.574219 22.144531 22.445312 21.507812 21.742188 C 20.886719 21.054688 20.726562 20.195312 20.71875 19.304688 C 20.71875 19.117188 20.804688 18.984375 20.925781 18.898438 C 20.992188 18.648438 21.074219 18.402344 21.1875 18.179688 C 21.863281 16.867188 23.289062 16.097656 24.757812 16.191406 C 26.230469 16.285156 27.414062 17.363281 27.542969 18.851562 C 27.730469 20.925781 26.195312 22.519531 24.148438 22.554688 Z M 36.414062 33.234375 C 34.585938 33.234375 32.757812 33.375 30.929688 33.375 C 30.863281 33.375 30.804688 33.367188 30.757812 33.347656 C 30.582031 33.757812 29.859375 33.757812 29.859375 33.226562 L 29.859375 30.261719 C 29.691406 30.074219 29.691406 29.757812 29.859375 29.597656 L 29.859375 27.882812 C 29.859375 27.722656 29.925781 27.609375 30.019531 27.523438 C 29.960938 27.355469 30.007812 27.160156 30.207031 27.039062 C 30.992188 26.550781 32.109375 26.53125 33.007812 26.484375 C 34.011719 26.4375 35.042969 26.417969 36.039062 26.539062 C 36.253906 26.570312 36.382812 26.765625 36.414062 26.960938 C 36.675781 28.875 36.703125 30.804688 36.835938 32.726562 C 36.863281 32.972656 36.675781 33.234375 36.414062 33.234375 Z M 36.414062 33.234375 "/>
<path style=" stroke:none;fill-rule:nonzero;fill:rgb(83.92157%,89.803922%,89.803922%);fill-opacity:1;" d="M 32.992188 30.402344 C 32.257812 30.421875 31.527344 30.421875 30.796875 30.421875 L 30.796875 32.445312 C 30.816406 32.445312 30.835938 32.445312 30.851562 32.445312 C 31.472656 32.445312 32.089844 32.429688 32.710938 32.410156 C 32.644531 32.296875 32.632812 32.15625 32.71875 32.007812 C 32.960938 31.546875 33 30.964844 32.992188 30.402344 Z M 32.992188 30.402344 "/>
<path style=" stroke:none;fill-rule:nonzero;fill:rgb(22.745098%,70.19608%,48.627451%);fill-opacity:1;" d="M 11.71875 31.96875 C 11.617188 31.882812 11.550781 31.773438 11.558594 31.632812 C 11.109375 31.695312 10.707031 31.996094 10.414062 32.363281 C 10.078125 32.804688 9.757812 33.507812 10.238281 33.957031 C 10.59375 34.292969 10.292969 34.808594 9.835938 34.773438 C 9.019531 34.695312 8.175781 35.117188 7.96875 35.960938 C 7.753906 36.84375 8.109375 37.640625 8.832031 38.175781 C 9.101562 38.382812 9 38.878906 8.679688 38.972656 C 8.277344 39.085938 7.949219 39.28125 7.996094 39.730469 C 8.042969 40.210938 8.316406 40.648438 8.605469 41.015625 C 9.09375 41.617188 10.238281 42.628906 11.070312 42.085938 C 11.136719 42.046875 11.203125 42.019531 11.257812 42.007812 C 11.117188 41.117188 10.96875 40.21875 11.25 39.367188 C 11.351562 39.046875 11.53125 38.691406 11.898438 38.605469 C 11.90625 38.605469 11.90625 38.605469 11.914062 38.605469 C 11.933594 38.585938 11.960938 38.578125 11.992188 38.558594 C 11.992188 36.355469 11.878906 34.164062 11.71875 31.96875 Z M 11.71875 31.96875 "/>
<path style=" stroke:none;fill-rule:nonzero;fill:rgb(77.254903%,39.607844%,15.686275%);fill-opacity:1;" d="M 21.683594 39.148438 C 21.675781 39.085938 21.675781 39.019531 21.664062 38.953125 C 21.242188 39.074219 20.757812 38.960938 20.296875 39.007812 C 19.546875 39.085938 18.804688 39.242188 18.054688 39.273438 C 16.480469 39.335938 14.925781 39.289062 13.351562 39.28125 C 13.292969 39.28125 13.238281 39.273438 13.191406 39.253906 C 12.992188 39.335938 12.730469 39.367188 12.496094 39.402344 C 12.414062 39.46875 12.308594 39.515625 12.207031 39.523438 C 12.195312 39.589844 12.132812 39.722656 12.121094 39.742188 C 12.027344 40.085938 12.019531 40.445312 12.054688 40.800781 C 12.132812 41.410156 12.261719 42.007812 12.320312 42.617188 C 12.355469 43.003906 12.375 43.398438 12.636719 43.667969 C 15.054688 43.660156 17.464844 43.585938 19.882812 43.507812 C 19.921875 43.023438 20.054688 42.535156 20.523438 42.261719 C 20.8125 42.101562 21.113281 41.980469 21.421875 41.90625 C 21.375 41.804688 21.375 41.671875 21.46875 41.53125 C 21.898438 40.914062 21.75 39.871094 21.683594 39.148438 Z M 39.710938 37.734375 C 39.394531 37.742188 39.085938 37.761719 38.785156 37.847656 C 38.664062 37.882812 38.550781 37.875 38.457031 37.828125 C 38.089844 38.195312 37.414062 38.242188 36.9375 38.257812 C 36.148438 38.296875 35.371094 38.25 34.585938 38.195312 C 33.722656 38.136719 32.90625 38.175781 32.054688 38.324219 C 30.984375 38.523438 29.933594 38.765625 28.847656 38.710938 C 28.855469 38.859375 28.867188 39.019531 28.875 39.167969 C 28.914062 39.757812 28.960938 40.359375 28.929688 40.949219 C 28.921875 41.117188 28.914062 41.304688 28.875 41.476562 C 29.570312 41.4375 30.261719 41.398438 30.957031 41.371094 C 31.5 41.351562 32.035156 41.324219 32.4375 41.746094 C 32.832031 42.160156 32.804688 42.769531 32.878906 43.292969 C 33.675781 43.285156 34.472656 43.265625 35.257812 43.246094 C 36.160156 43.226562 37.070312 43.179688 37.960938 43.023438 C 38.605469 42.910156 39.28125 42.75 39.824219 42.375 C 39.835938 40.835938 39.730469 39.289062 39.710938 37.734375 Z M 39.710938 37.734375 "/>
<path style=" stroke:none;fill-rule:nonzero;fill:rgb(22.745098%,70.19608%,48.627451%);fill-opacity:1;" d="M 45.1875 39.429688 C 45.167969 39 45.113281 38.417969 44.550781 38.550781 C 44.128906 38.652344 43.6875 38.164062 44.042969 37.800781 C 44.597656 37.21875 45.085938 36.367188 44.597656 35.585938 C 44.210938 34.976562 43.425781 35.296875 42.863281 35.457031 C 42.414062 35.585938 42.054688 35.082031 42.355469 34.707031 C 42.796875 34.164062 42.777344 33.148438 42.414062 32.570312 C 42.253906 32.324219 41.960938 32.007812 41.625 32.109375 C 41.210938 32.230469 40.585938 32.492188 40.648438 33.007812 C 40.6875 33.328125 40.453125 33.496094 40.210938 33.496094 C 40.191406 33.742188 40.171875 33.984375 40.152344 34.226562 C 40.078125 35.023438 40.246094 35.992188 40.011719 36.796875 C 40.058594 36.796875 40.105469 36.796875 40.152344 36.796875 C 40.398438 36.796875 40.660156 36.957031 40.660156 37.226562 C 40.660156 38.4375 40.726562 39.636719 40.761719 40.847656 C 40.773438 41.109375 40.78125 41.371094 40.78125 41.632812 C 40.835938 41.605469 40.914062 41.585938 40.996094 41.585938 C 42.367188 41.585938 43.707031 41.523438 44.792969 40.59375 C 45.140625 40.292969 45.214844 39.890625 45.1875 39.429688 Z M 45.1875 39.429688 "/>
<path style=" stroke:none;fill-rule:nonzero;fill:rgb(83.92157%,89.803922%,89.803922%);fill-opacity:1;" d="M 22.996094 8.316406 C 22.789062 7.351562 22.648438 6.382812 22.59375 5.410156 C 22.265625 5.699219 21.917969 5.992188 21.617188 6.320312 C 20.195312 7.894531 18.757812 9.460938 17.335938 11.035156 C 15.890625 12.648438 14.382812 14.195312 12.929688 15.796875 C 11.785156 17.054688 10.3125 18.007812 9.355469 19.433594 C 9.570312 19.648438 9.796875 19.855469 10.023438 20.054688 C 10.339844 20.316406 10.667969 20.492188 11.015625 20.710938 C 11.023438 20.710938 11.023438 20.71875 11.035156 20.71875 C 11.054688 20.710938 11.070312 20.699219 11.089844 20.691406 C 11.4375 20.511719 11.757812 20.324219 12.066406 20.082031 C 13.460938 18.976562 14.570312 17.523438 15.824219 16.265625 C 16.546875 15.542969 17.210938 14.785156 17.90625 14.035156 C 18.542969 13.339844 19.238281 12.695312 19.882812 12.007812 C 20.972656 10.855469 22.152344 9.796875 23.117188 8.53125 C 23.0625 8.484375 23.015625 8.417969 22.996094 8.316406 Z M 31.921875 42.890625 C 31.882812 42.609375 31.820312 42.347656 31.613281 42.328125 C 31.199219 42.28125 30.777344 42.335938 30.367188 42.367188 C 29.015625 42.441406 27.65625 42.507812 26.304688 42.601562 C 25.191406 42.675781 24.085938 42.695312 22.960938 42.722656 C 22.453125 42.742188 21.898438 42.742188 21.414062 42.910156 C 21.027344 43.039062 20.878906 43.210938 20.832031 43.507812 C 23.363281 43.445312 25.894531 43.445312 28.425781 43.386719 C 29.523438 43.359375 30.609375 43.351562 31.707031 43.332031 C 31.6875 43.152344 31.753906 42.964844 31.921875 42.890625 Z M 27.984375 41.242188 C 28.050781 41.128906 28.164062 41.042969 28.320312 41.023438 C 28.097656 41.054688 28.023438 41.136719 27.984375 41.242188 Z M 27.984375 41.242188 "/>
<path style=" stroke:none;fill-rule:nonzero;fill:rgb(99.607843%,74.901962%,6.27451%);fill-opacity:1;" d="M 27.769531 36.9375 C 27.648438 35.617188 27.515625 34.292969 27.355469 32.972656 C 27.1875 31.539062 27.554688 30.007812 27.066406 28.613281 C 26.980469 28.367188 26.945312 28.226562 26.710938 28.238281 C 26.289062 28.257812 25.882812 28.367188 25.472656 28.460938 C 24.441406 28.707031 23.363281 28.613281 22.304688 28.695312 C 22.097656 30.09375 22.058594 31.5 22.085938 32.90625 C 22.117188 34.132812 22.125 35.382812 22.304688 36.601562 C 22.445312 37.574219 22.601562 38.558594 22.648438 39.542969 C 22.6875 40.246094 22.742188 41.136719 22.414062 41.792969 C 23.015625 41.757812 23.617188 41.765625 24.214844 41.765625 C 24.890625 41.765625 25.566406 41.691406 26.242188 41.652344 C 26.804688 41.617188 27.367188 41.578125 27.917969 41.539062 C 27.910156 41.4375 27.9375 41.335938 27.984375 41.25 C 27.984375 41.242188 27.984375 41.230469 27.992188 41.222656 C 28.003906 41.195312 28.011719 41.023438 28.011719 41.0625 C 28.058594 39.695312 27.890625 38.296875 27.769531 36.9375 Z M 23.417969 36.253906 C 23.183594 36.414062 22.929688 36.320312 22.773438 36.132812 C 22.539062 35.859375 22.554688 35.398438 22.554688 35.0625 C 22.554688 34.808594 22.714844 34.574219 22.988281 34.554688 C 23.230469 34.539062 23.492188 34.734375 23.492188 34.988281 C 23.492188 35.128906 23.492188 35.269531 23.503906 35.417969 C 23.503906 35.457031 23.511719 35.503906 23.523438 35.539062 C 23.523438 35.550781 23.523438 35.550781 23.53125 35.570312 C 23.53125 35.578125 23.53125 35.578125 23.539062 35.585938 C 23.550781 35.597656 23.550781 35.605469 23.558594 35.617188 C 23.71875 35.792969 23.617188 36.121094 23.417969 36.253906 Z M 23.417969 36.253906 "/>
<path style=" stroke:none;fill-rule:nonzero;fill:rgb(0.392157%,0.392157%,0.392157%);fill-opacity:1;" d="M 45.992188 38.558594 C 45.871094 38.136719 45.609375 37.867188 45.28125 37.726562 C 45.441406 37.453125 45.570312 37.171875 45.664062 36.851562 C 45.84375 36.226562 45.65625 35.625 45.367188 35.0625 C 44.992188 34.332031 44.25 34.246094 43.519531 34.351562 C 43.734375 33.460938 43.546875 32.429688 42.976562 31.773438 C 42.507812 31.238281 41.859375 31.070312 41.183594 31.265625 C 40.875 31.359375 40.554688 31.519531 40.304688 31.742188 C 40.332031 31.152344 40.351562 30.5625 40.378906 29.972656 C 40.492188 27.113281 40.378906 24.242188 40.359375 21.382812 C 40.414062 21.355469 40.472656 21.320312 40.527344 21.273438 C 41.035156 20.757812 41.445312 20.117188 41.839844 19.507812 C 42.121094 19.070312 42.695312 18.195312 42.226562 17.699219 C 42.394531 17.484375 42.402344 17.148438 42.074219 17.023438 C 40.453125 16.40625 39.214844 14.992188 37.96875 13.835938 C 36.488281 12.46875 34.707031 11.417969 33.039062 10.292969 C 31.332031 9.140625 29.726562 7.867188 28.191406 6.496094 C 26.832031 5.289062 25.398438 3.984375 23.664062 3.382812 C 23.464844 3.320312 23.277344 3.375 23.15625 3.488281 C 22.78125 3.382812 22.5 3.789062 22.59375 4.097656 L 22.59375 4.105469 C 22.585938 4.117188 22.585938 4.125 22.574219 4.132812 C 22.492188 4.238281 22.398438 4.339844 22.292969 4.433594 C 22.117188 4.613281 21.917969 4.773438 21.710938 4.921875 C 21.007812 5.4375 20.457031 6.253906 19.855469 6.882812 C 18.46875 8.34375 17.148438 9.863281 15.804688 11.363281 C 15.167969 12.074219 14.503906 12.769531 13.847656 13.460938 C 13.164062 14.183594 12.515625 14.945312 11.804688 15.636719 C 10.621094 16.78125 9.300781 17.773438 8.417969 19.199219 C 8.335938 19.339844 8.335938 19.480469 8.390625 19.585938 C 8.390625 19.695312 8.4375 19.800781 8.53125 19.894531 C 9.113281 20.476562 9.710938 21.046875 10.445312 21.429688 C 10.621094 21.523438 10.742188 21.675781 10.949219 21.722656 C 10.96875 21.730469 10.996094 21.730469 11.015625 21.730469 C 10.921875 22.359375 11.109375 23.148438 11.183594 23.652344 C 11.371094 24.992188 11.34375 26.34375 11.4375 27.703125 C 11.511719 28.6875 11.585938 29.679688 11.652344 30.664062 C 10.171875 30.730469 8.757812 32.484375 9.167969 33.882812 C 8.242188 34.050781 7.460938 34.621094 7.132812 35.605469 C 6.816406 36.582031 7.078125 37.632812 7.726562 38.390625 C 5.738281 39.804688 9.066406 44.15625 11.4375 42.964844 C 11.484375 43.40625 11.597656 43.847656 11.859375 44.203125 C 12.289062 44.773438 13.003906 44.617188 13.640625 44.617188 C 15.167969 44.605469 16.695312 44.558594 18.234375 44.511719 C 23.980469 44.34375 29.738281 44.324219 35.484375 44.183594 C 37.039062 44.148438 38.726562 44.042969 40.132812 43.3125 C 40.425781 43.164062 40.808594 42.9375 40.808594 42.570312 C 40.808594 42.523438 40.808594 42.476562 40.808594 42.429688 C 40.882812 42.476562 40.976562 42.515625 41.082031 42.515625 C 42.789062 42.515625 44.839844 42.328125 45.882812 40.761719 C 46.257812 40.164062 46.179688 39.214844 45.992188 38.558594 Z M 23.511719 4.332031 C 25.144531 4.988281 26.476562 6.234375 27.777344 7.398438 C 29.316406 8.765625 30.945312 10.023438 32.664062 11.164062 C 34.339844 12.28125 36.074219 13.359375 37.554688 14.738281 C 38.746094 15.84375 39.957031 17.148438 41.476562 17.792969 C 41.390625 17.925781 41.371094 18.09375 41.457031 18.242188 C 41.4375 18.347656 41.382812 18.441406 41.335938 18.523438 C 41.195312 18.804688 41.023438 19.078125 40.847656 19.339844 C 40.613281 19.6875 40.359375 20.042969 40.085938 20.371094 C 38.820312 19.632812 37.808594 18.523438 36.675781 17.605469 C 35.203125 16.425781 33.796875 15.160156 32.34375 13.949219 C 29.738281 11.792969 26.726562 10.179688 24.179688 7.949219 C 24.074219 7.855469 23.960938 7.828125 23.851562 7.835938 C 23.617188 6.695312 23.503906 5.539062 23.492188 4.378906 C 23.492188 4.359375 23.503906 4.339844 23.511719 4.332031 Z M 23.945312 8.992188 C 26.457031 11.089844 29.335938 12.683594 31.855469 14.773438 C 33.300781 15.976562 34.695312 17.222656 36.160156 18.402344 C 37.257812 19.285156 38.230469 20.324219 39.421875 21.066406 C 39.421875 21.085938 39.421875 21.101562 39.421875 21.132812 C 39.421875 23.914062 39.535156 26.699219 39.460938 29.484375 C 39.421875 30.890625 39.375 32.289062 39.253906 33.695312 C 39.207031 34.273438 39.140625 34.835938 39.160156 35.417969 C 39.179688 35.914062 39.207031 36.429688 38.945312 36.871094 C 38.785156 36.898438 38.625 36.929688 38.476562 36.976562 C 38.445312 36.984375 38.429688 36.992188 38.410156 37.003906 C 38.242188 36.890625 38.015625 36.890625 37.855469 37.105469 C 37.660156 37.386719 36.898438 37.339844 36.5625 37.351562 C 35.867188 37.367188 35.183594 37.3125 34.492188 37.265625 C 33.695312 37.210938 32.945312 37.246094 32.15625 37.367188 C 31.078125 37.546875 29.980469 37.875 28.875 37.789062 C 28.847656 37.789062 28.820312 37.789062 28.789062 37.789062 C 28.695312 36.664062 28.585938 35.539062 28.460938 34.414062 C 28.40625 33.890625 28.351562 33.375 28.285156 32.859375 C 28.210938 32.230469 28.285156 31.566406 28.273438 30.929688 C 28.246094 29.699219 28.320312 27.207031 26.550781 27.300781 C 25.949219 27.328125 25.378906 27.554688 24.789062 27.648438 C 24.355469 27.710938 23.878906 27.65625 23.4375 27.664062 C 22.914062 27.675781 22.386719 27.722656 21.863281 27.796875 C 21.65625 27.824219 21.476562 27.964844 21.441406 28.171875 C 21.207031 29.53125 21.148438 30.910156 21.148438 32.289062 C 21.148438 33.617188 21.148438 35.007812 21.328125 36.328125 C 21.402344 36.882812 21.488281 37.425781 21.554688 37.976562 C 21.496094 37.996094 21.449219 38.035156 21.402344 38.082031 C 21.375 38.109375 20.679688 38.042969 20.578125 38.042969 C 20.230469 38.054688 19.882812 38.109375 19.546875 38.15625 C 18.851562 38.25 18.167969 38.296875 17.476562 38.363281 C 16.085938 38.492188 14.679688 38.351562 13.285156 38.34375 C 13.238281 38.34375 13.191406 38.351562 13.152344 38.363281 C 13.105469 38.351562 13.058594 38.34375 13.003906 38.34375 C 12.984375 38.34375 12.964844 38.34375 12.945312 38.34375 C 12.945312 38.335938 12.945312 38.324219 12.945312 38.304688 C 12.929688 36 12.816406 33.675781 12.648438 31.359375 C 12.695312 31.238281 12.675781 31.117188 12.617188 31.011719 C 12.554688 30.101562 12.476562 29.195312 12.402344 28.292969 C 12.335938 27.496094 12.28125 26.710938 12.253906 25.914062 C 12.234375 25.332031 12.242188 24.757812 12.167969 24.179688 C 12.101562 23.691406 12.027344 23.203125 11.980469 22.714844 C 11.953125 22.492188 11.945312 22.257812 11.933594 22.03125 C 11.933594 21.945312 11.933594 21.851562 11.945312 21.769531 C 11.960938 21.617188 12.007812 21.648438 11.878906 21.757812 C 12.054688 21.609375 12.085938 21.414062 12.039062 21.234375 C 13.527344 20.351562 14.691406 18.835938 15.816406 17.570312 C 16.480469 16.820312 17.242188 16.144531 17.914062 15.402344 C 18.636719 14.605469 19.359375 13.808594 20.136719 13.078125 C 20.859375 12.402344 21.535156 11.652344 22.226562 10.949219 C 22.855469 10.332031 23.4375 9.695312 23.945312 8.992188 Z M 22.648438 39.554688 C 22.601562 38.570312 22.445312 37.585938 22.304688 36.609375 C 22.125 35.390625 22.117188 34.144531 22.085938 32.914062 C 22.058594 31.507812 22.085938 30.09375 22.304688 28.707031 C 23.363281 28.613281 24.441406 28.707031 25.472656 28.472656 C 25.882812 28.378906 26.289062 28.273438 26.710938 28.246094 C 26.945312 28.238281 26.980469 28.378906 27.066406 28.621094 C 27.554688 30.019531 27.1875 31.546875 27.355469 32.980469 C 27.515625 34.304688 27.648438 35.625 27.769531 36.945312 C 27.890625 38.304688 28.070312 39.703125 28.003906 41.070312 C 28.003906 41.035156 27.992188 41.203125 27.984375 41.230469 C 27.984375 41.242188 27.984375 41.25 27.976562 41.257812 C 27.929688 41.351562 27.898438 41.457031 27.910156 41.550781 C 27.347656 41.585938 26.785156 41.625 26.230469 41.664062 C 25.554688 41.710938 24.890625 41.773438 24.207031 41.773438 C 23.605469 41.773438 23.007812 41.765625 22.40625 41.804688 C 22.742188 41.136719 22.6875 40.246094 22.648438 39.554688 Z M 28.320312 41.023438 C 28.164062 41.054688 28.050781 41.136719 27.984375 41.242188 C 28.023438 41.136719 28.097656 41.054688 28.320312 41.023438 Z M 11.101562 20.691406 C 11.082031 20.699219 11.0625 20.710938 11.042969 20.71875 C 11.035156 20.71875 11.035156 20.710938 11.023438 20.710938 C 10.6875 20.492188 10.351562 20.316406 10.03125 20.054688 C 9.796875 19.855469 9.582031 19.648438 9.367188 19.433594 C 10.320312 18.007812 11.792969 17.054688 12.9375 15.796875 C 14.390625 14.195312 15.898438 12.648438 17.34375 11.035156 C 18.769531 9.460938 20.195312 7.882812 21.628906 6.320312 C 21.929688 5.992188 22.265625 5.699219 22.601562 5.410156 C 22.667969 6.382812 22.800781 7.351562 23.007812 8.316406 C 23.023438 8.410156 23.070312 8.484375 23.128906 8.539062 C 22.164062 9.796875 20.992188 10.867188 19.894531 12.019531 C 19.246094 12.703125 18.554688 13.351562 17.914062 14.042969 C 17.222656 14.792969 16.554688 15.554688 15.835938 16.273438 C 14.578125 17.53125 13.480469 18.984375 12.074219 20.089844 C 11.765625 20.324219 11.4375 20.511719 11.101562 20.691406 Z M 11.933594 38.597656 C 11.925781 38.597656 11.925781 38.597656 11.914062 38.597656 C 11.558594 38.679688 11.371094 39.046875 11.269531 39.355469 C 10.988281 40.210938 11.128906 41.117188 11.277344 42 C 11.210938 42.007812 11.15625 42.039062 11.089844 42.074219 C 10.257812 42.617188 9.113281 41.605469 8.625 41.007812 C 8.324219 40.640625 8.0625 40.199219 8.015625 39.722656 C 7.96875 39.273438 8.296875 39.074219 8.699219 38.960938 C 9.027344 38.878906 9.132812 38.371094 8.851562 38.164062 C 8.136719 37.632812 7.773438 36.835938 7.988281 35.953125 C 8.195312 35.109375 9.039062 34.6875 9.851562 34.761719 C 10.3125 34.800781 10.601562 34.292969 10.257812 33.945312 C 9.777344 33.488281 10.085938 32.785156 10.433594 32.351562 C 10.714844 31.988281 11.128906 31.6875 11.578125 31.621094 C 11.570312 31.753906 11.632812 31.875 11.738281 31.960938 C 11.886719 34.152344 12.007812 36.347656 12.019531 38.539062 C 11.980469 38.570312 11.953125 38.578125 11.933594 38.597656 Z M 19.894531 43.539062 C 17.476562 43.613281 15.066406 43.6875 12.648438 43.695312 C 12.382812 43.425781 12.355469 43.023438 12.328125 42.648438 C 12.273438 42.039062 12.140625 41.4375 12.066406 40.828125 C 12.027344 40.472656 12.039062 40.117188 12.132812 39.769531 C 12.140625 39.742188 12.207031 39.617188 12.214844 39.554688 C 12.328125 39.542969 12.429688 39.496094 12.507812 39.429688 C 12.730469 39.382812 12.992188 39.355469 13.199219 39.28125 C 13.246094 39.300781 13.304688 39.308594 13.359375 39.308594 C 14.933594 39.320312 16.492188 39.367188 18.066406 39.300781 C 18.816406 39.273438 19.566406 39.113281 20.304688 39.039062 C 20.765625 38.992188 21.253906 39.101562 21.675781 38.980469 C 21.683594 39.046875 21.683594 39.113281 21.695312 39.179688 C 21.757812 39.898438 21.910156 40.941406 21.488281 41.585938 C 21.394531 41.726562 21.394531 41.859375 21.441406 41.960938 C 21.132812 42.039062 20.832031 42.148438 20.539062 42.320312 C 20.054688 42.554688 19.921875 43.039062 19.894531 43.539062 Z M 31.707031 43.332031 C 30.609375 43.351562 29.523438 43.367188 28.425781 43.386719 C 25.894531 43.445312 23.363281 43.445312 20.832031 43.507812 C 20.878906 43.210938 21.019531 43.039062 21.414062 42.910156 C 21.898438 42.742188 22.445312 42.742188 22.960938 42.722656 C 24.085938 42.683594 25.191406 42.675781 26.304688 42.601562 C 27.65625 42.507812 29.015625 42.449219 30.367188 42.367188 C 30.777344 42.335938 31.199219 42.289062 31.613281 42.328125 C 31.808594 42.347656 31.882812 42.609375 31.921875 42.890625 C 31.753906 42.964844 31.6875 43.152344 31.707031 43.332031 Z M 37.976562 43.03125 C 37.085938 43.191406 36.179688 43.238281 35.277344 43.257812 C 34.480469 43.273438 33.683594 43.292969 32.898438 43.304688 C 32.820312 42.769531 32.851562 42.160156 32.457031 41.757812 C 32.054688 41.335938 31.519531 41.363281 30.976562 41.382812 C 30.28125 41.410156 29.585938 41.4375 28.894531 41.484375 C 28.941406 41.316406 28.949219 41.128906 28.949219 40.960938 C 28.976562 40.367188 28.929688 39.769531 28.894531 39.179688 C 28.882812 39.027344 28.875 38.867188 28.867188 38.71875 C 29.953125 38.765625 31.003906 38.523438 32.070312 38.335938 C 32.925781 38.183594 33.742188 38.148438 34.601562 38.203125 C 35.382812 38.257812 36.167969 38.304688 36.957031 38.269531 C 37.425781 38.25 38.109375 38.195312 38.476562 37.835938 C 38.570312 37.875 38.679688 37.894531 38.804688 37.855469 C 39.101562 37.773438 39.421875 37.742188 39.730469 37.742188 C 39.75 39.289062 39.851562 40.835938 39.863281 42.382812 C 39.300781 42.757812 38.617188 42.917969 37.976562 43.03125 Z M 44.785156 40.59375 C 43.6875 41.523438 42.355469 41.585938 40.988281 41.585938 C 40.902344 41.585938 40.828125 41.605469 40.773438 41.632812 C 40.761719 41.371094 40.761719 41.109375 40.753906 40.847656 C 40.714844 39.636719 40.648438 38.4375 40.648438 37.226562 C 40.648438 36.957031 40.386719 36.796875 40.144531 36.796875 C 40.097656 36.796875 40.050781 36.796875 40.003906 36.796875 C 40.238281 36 40.070312 35.023438 40.144531 34.226562 C 40.164062 33.984375 40.179688 33.742188 40.199219 33.496094 C 40.445312 33.496094 40.679688 33.328125 40.640625 33.007812 C 40.574219 32.492188 41.203125 32.230469 41.617188 32.109375 C 41.953125 32.015625 42.242188 32.324219 42.402344 32.570312 C 42.769531 33.148438 42.789062 34.164062 42.347656 34.707031 C 42.046875 35.082031 42.402344 35.585938 42.851562 35.457031 C 43.414062 35.296875 44.203125 34.976562 44.585938 35.585938 C 45.074219 36.367188 44.597656 37.21875 44.035156 37.800781 C 43.679688 38.164062 44.117188 38.652344 44.539062 38.550781 C 45.101562 38.417969 45.160156 39 45.179688 39.429688 C 45.214844 39.890625 45.140625 40.292969 44.785156 40.59375 Z M 44.785156 40.59375 "/>
<path style=" stroke:none;fill-rule:nonzero;fill:rgb(0.392157%,0.392157%,0.392157%);fill-opacity:1;" d="M 27.542969 18.863281 C 27.414062 17.371094 26.242188 16.285156 24.757812 16.199219 C 23.289062 16.105469 21.863281 16.875 21.1875 18.1875 C 21.074219 18.414062 20.980469 18.664062 20.925781 18.910156 C 20.804688 18.992188 20.71875 19.125 20.71875 19.3125 C 20.726562 20.203125 20.886719 21.074219 21.507812 21.75 C 22.144531 22.453125 23.257812 22.585938 24.148438 22.566406 C 26.195312 22.519531 27.730469 20.925781 27.542969 18.863281 Z M 26.382812 20.335938 C 26.054688 21.046875 25.332031 21.449219 24.582031 21.570312 C 23.832031 21.703125 22.875 21.65625 22.257812 21.160156 C 21.804688 20.792969 21.695312 20.164062 21.664062 19.59375 C 21.722656 19.539062 21.769531 19.453125 21.789062 19.351562 C 21.992188 18.214844 22.855469 17.363281 23.992188 17.15625 C 24.992188 16.96875 26.070312 17.335938 26.464844 18.328125 C 26.726562 18.976562 26.664062 19.726562 26.382812 20.335938 Z M 36.84375 32.738281 C 36.710938 30.816406 36.683594 28.882812 36.421875 26.972656 C 36.394531 26.773438 36.261719 26.570312 36.046875 26.550781 C 35.042969 26.429688 34.023438 26.445312 33.019531 26.492188 C 32.117188 26.53125 31.003906 26.558594 30.214844 27.046875 C 30.019531 27.167969 29.972656 27.367188 30.027344 27.535156 C 29.933594 27.617188 29.867188 27.742188 29.867188 27.890625 L 29.867188 29.605469 C 29.699219 29.765625 29.699219 30.085938 29.867188 30.273438 L 29.867188 33.234375 C 29.867188 33.769531 30.589844 33.769531 30.769531 33.355469 C 30.816406 33.375 30.871094 33.382812 30.9375 33.382812 C 32.765625 33.382812 34.59375 33.242188 36.421875 33.242188 C 36.675781 33.234375 36.863281 32.972656 36.84375 32.738281 Z M 32.820312 27.429688 C 32.839844 28.105469 32.90625 28.789062 32.945312 29.464844 C 32.230469 29.484375 31.507812 29.484375 30.796875 29.484375 L 30.796875 27.804688 C 30.796875 27.796875 30.796875 27.789062 30.796875 27.777344 C 31.351562 27.46875 32.15625 27.449219 32.820312 27.429688 Z M 32.71875 31.996094 C 32.632812 32.148438 32.644531 32.289062 32.710938 32.398438 C 32.089844 32.417969 31.472656 32.4375 30.851562 32.4375 C 30.835938 32.4375 30.816406 32.4375 30.796875 32.4375 L 30.796875 30.414062 C 31.527344 30.414062 32.257812 30.402344 32.992188 30.394531 C 33 30.964844 32.960938 31.546875 32.71875 31.996094 Z M 35.539062 27.429688 C 35.625 28.117188 35.679688 28.800781 35.71875 29.484375 C 35.632812 29.390625 35.511719 29.335938 35.351562 29.351562 C 34.867188 29.390625 34.367188 29.417969 33.882812 29.4375 C 33.851562 28.753906 33.789062 28.078125 33.757812 27.394531 C 34.351562 27.375 34.949219 27.382812 35.539062 27.429688 Z M 33.582031 32.371094 C 33.882812 31.78125 33.910156 31.050781 33.910156 30.375 C 34.414062 30.355469 34.921875 30.328125 35.429688 30.28125 C 35.578125 30.273438 35.691406 30.195312 35.757812 30.101562 C 35.792969 30.835938 35.832031 31.566406 35.878906 32.304688 C 35.109375 32.316406 34.351562 32.34375 33.582031 32.371094 Z M 20.289062 31.191406 C 20.269531 30.207031 20.117188 29.222656 20.109375 28.238281 C 20.109375 27.890625 19.789062 27.769531 19.527344 27.84375 C 19.507812 27.609375 19.339844 27.382812 19.039062 27.382812 C 18.710938 27.382812 18.382812 27.382812 18.054688 27.414062 C 17.785156 27.429688 17.53125 27.523438 17.257812 27.523438 C 16.78125 27.523438 16.3125 27.535156 15.835938 27.5625 C 15.085938 27.601562 14.128906 27.601562 13.773438 28.386719 C 13.425781 29.148438 13.546875 30.121094 13.613281 30.929688 C 13.6875 31.789062 13.847656 32.652344 13.960938 33.515625 C 13.988281 33.710938 14.128906 33.917969 14.335938 33.9375 C 15.300781 34.050781 16.246094 34.265625 17.210938 34.359375 C 17.980469 34.425781 19.285156 34.539062 19.789062 33.804688 C 20.316406 33.054688 20.304688 32.042969 20.289062 31.191406 Z M 17.429688 28.453125 C 17.671875 28.453125 17.898438 28.367188 18.140625 28.339844 C 18.46875 28.304688 18.796875 28.3125 19.125 28.3125 C 19.144531 28.3125 19.164062 28.3125 19.179688 28.3125 C 19.191406 29.082031 19.285156 29.851562 19.332031 30.609375 C 19.257812 30.617188 19.179688 30.636719 19.105469 30.695312 C 18.617188 31.011719 17.945312 31.039062 17.335938 31.03125 C 17.335938 30.195312 17.304688 29.351562 17.296875 28.519531 C 17.296875 28.5 17.296875 28.480469 17.296875 28.460938 Z M 16.378906 32.371094 C 16.367188 32.539062 16.359375 32.71875 16.339844 32.886719 C 16.339844 32.925781 16.332031 32.960938 16.320312 33 C 16.246094 33.074219 16.210938 33.179688 16.21875 33.28125 C 15.757812 33.207031 15.308594 33.121094 14.851562 33.054688 C 14.792969 32.652344 14.726562 32.242188 14.671875 31.835938 C 15.242188 31.855469 15.816406 31.902344 16.386719 31.929688 C 16.386719 32.070312 16.386719 32.222656 16.378906 32.371094 Z M 16.398438 31.003906 C 15.789062 30.976562 15.167969 30.917969 14.558594 30.898438 C 14.484375 30.234375 14.4375 29.53125 14.585938 28.882812 C 14.644531 28.660156 14.691406 28.648438 14.886719 28.59375 C 15.289062 28.492188 15.742188 28.492188 16.144531 28.472656 C 16.21875 28.472656 16.292969 28.460938 16.359375 28.460938 C 16.351562 28.5 16.351562 28.539062 16.351562 28.574219 C 16.351562 29.363281 16.378906 30.140625 16.386719 30.929688 L 16.386719 31.003906 Z M 19.117188 33.132812 C 18.882812 33.628906 17.746094 33.476562 17.183594 33.414062 C 17.230469 33.273438 17.25 33.132812 17.269531 33.007812 C 17.304688 32.664062 17.316406 32.316406 17.324219 31.960938 C 18.007812 31.960938 18.75 31.921875 19.367188 31.613281 C 19.378906 32.136719 19.332031 32.671875 19.117188 33.132812 Z M 23.550781 35.597656 C 23.539062 35.585938 23.53125 35.578125 23.53125 35.570312 C 23.53125 35.558594 23.53125 35.558594 23.523438 35.550781 C 23.523438 35.539062 23.511719 35.53125 23.511719 35.523438 C 23.503906 35.484375 23.503906 35.4375 23.492188 35.398438 C 23.484375 35.257812 23.484375 35.117188 23.484375 34.96875 C 23.484375 34.714844 23.222656 34.519531 22.976562 34.539062 C 22.707031 34.554688 22.546875 34.78125 22.546875 35.042969 C 22.546875 35.382812 22.527344 35.839844 22.761719 36.113281 C 22.929688 36.308594 23.183594 36.394531 23.410156 36.234375 C 23.617188 36.121094 23.71875 35.792969 23.550781 35.597656 Z M 23.550781 35.597656 "/>
</g>
</svg>
